<svg xmlns="http://www.w3.org/2000/svg" width="1400" height="420" viewBox="0 0 1400 420">
<rect width="1400" height="420" fill="#ffffff"/><text x="700" y="55" text-anchor="middle" font-family="Arial" font-size="34" font-weight="700" fill="#173B66">User Flow — Asisten AI untuk UMKM</text>
<defs><marker id="arr" markerWidth="12" markerHeight="12" refX="10" refY="6" orient="auto"><path d="M0,0 L12,6 L0,12 Z" fill="#8ea4bb"/></marker></defs>
<g font-family="Arial" font-size="18" text-anchor="middle">
<g><rect x="60" y="150" width="190" height="90" rx="18" fill="#f3f7fb" stroke="#1F5F99" stroke-width="4"/><text x="155" y="190" font-weight="700" fill="#173B66">Beranda</text><text x="155" y="220" font-size="14" fill="#4B5A6A">Mulai aplikasi</text></g>
<path d="M250 195 H340" stroke="#8ea4bb" stroke-width="7" marker-end="url(#arr)"/>
<g><rect x="350" y="150" width="190" height="90" rx="18" fill="#f3f7fb" stroke="#1F5F99" stroke-width="4"/><text x="445" y="190" font-weight="700" fill="#173B66">Form Produk</text><text x="445" y="220" font-size="14" fill="#4B5A6A">Input data</text></g>
<path d="M540 195 H630" stroke="#8ea4bb" stroke-width="7" marker-end="url(#arr)"/>
<g><rect x="640" y="150" width="190" height="90" rx="18" fill="#fff4e9" stroke="#F28C28" stroke-width="4"/><text x="735" y="190" font-weight="700" fill="#F28C28">Generate AI</text><text x="735" y="220" font-size="14" fill="#4B5A6A">Buat caption</text></g>
<path d="M830 195 H920" stroke="#8ea4bb" stroke-width="7" marker-end="url(#arr)"/>
<g><rect x="930" y="150" width="190" height="90" rx="18" fill="#f3f7fb" stroke="#17A398" stroke-width="4"/><text x="1025" y="190" font-weight="700" fill="#173B66">Hasil</text><text x="1025" y="220" font-size="14" fill="#4B5A6A">Edit atau salin</text></g>
<path d="M1120 195 H1210" stroke="#8ea4bb" stroke-width="7" marker-end="url(#arr)"/>
<g><rect x="1220" y="150" width="130" height="90" rx="18" fill="#edf9f5" stroke="#17A398" stroke-width="4"/><text x="1285" y="190" font-weight="700" fill="#17A398">Selesai</text><text x="1285" y="220" font-size="14" fill="#4B5A6A">Siap pakai</text></g>
</g></svg>