<svg xmlns="http://www.w3.org/2000/svg" width="1400" height="620" viewBox="0 0 1400 620">
<rect width="1400" height="620" fill="#f7f9fc"/><text x="700" y="60" text-anchor="middle" font-family="Arial" font-size="34" font-weight="700" fill="#173B66">Wireframe 3 Halaman — Asisten AI UMKM</text>
<g font-family="Arial" fill="#173B66">
<g transform="translate(70,120)"><rect width="360" height="420" rx="18" fill="white" stroke="#CAD5E1" stroke-width="3"/><text x="180" y="38" text-anchor="middle" font-size="22" font-weight="700">Beranda</text><rect x="40" y="80" width="280" height="80" rx="12" fill="#DDECF8"/><rect x="60" y="190" width="240" height="18" rx="6" fill="#9fbfe2"/><rect x="60" y="225" width="200" height="18" rx="6" fill="#c3d8ef"/><rect x="100" y="310" width="160" height="46" rx="10" fill="#F28C28"/></g>
<g transform="translate(520,120)"><rect width="360" height="420" rx="18" fill="white" stroke="#CAD5E1" stroke-width="3"/><text x="180" y="38" text-anchor="middle" font-size="22" font-weight="700">Form Produk</text><rect x="50" y="85" width="260" height="38" rx="8" fill="#edf2f7" stroke="#94a3b8"/><rect x="50" y="150" width="260" height="90" rx="8" fill="#edf2f7" stroke="#94a3b8"/><rect x="50" y="270" width="260" height="38" rx="8" fill="#edf2f7" stroke="#94a3b8"/><rect x="110" y="340" width="140" height="44" rx="10" fill="#F28C28"/></g>
<g transform="translate(970,120)"><rect width="360" height="420" rx="18" fill="white" stroke="#CAD5E1" stroke-width="3"/><text x="180" y="38" text-anchor="middle" font-size="22" font-weight="700">Hasil Caption</text><rect x="45" y="80" width="270" height="170" rx="12" fill="#edf9f5" stroke="#17A398"/><rect x="70" y="115" width="210" height="16" rx="5" fill="#9edcd3"/><rect x="70" y="150" width="230" height="16" rx="5" fill="#9edcd3"/><rect x="70" y="185" width="180" height="16" rx="5" fill="#9edcd3"/><rect x="55" y="305" width="110" height="44" rx="10" fill="#1F5F99"/><rect x="195" y="305" width="110" height="44" rx="10" fill="#F28C28"/></g>
</g></svg>