<svg xmlns="http://www.w3.org/2000/svg" width="1000" height="360" viewBox="0 0 1000 360">
  <rect width="1000" height="360" rx="28" fill="#f3f7fb"/>
  <defs><marker id="arrow" markerWidth="10" markerHeight="10" refX="6" refY="3" orient="auto"><path d="M0,0 L0,6 L6,3 z" fill="#24466e"/></marker></defs>
  <g font-family="Arial" font-weight="700" text-anchor="middle">
    <rect x="50" y="90" width="190" height="120" rx="18" fill="#24466e"/><text x="145" y="145" font-size="28" fill="#fff">Frontend</text><text x="145" y="178" font-size="18" fill="#dce8f7">Fetch API</text>
    <rect x="405" y="90" width="190" height="120" rx="18" fill="#fdbf0e"/><text x="500" y="145" font-size="28" fill="#1f334f">REST API</text><text x="500" y="178" font-size="18" fill="#1f334f">Express Route</text>
    <rect x="760" y="90" width="190" height="120" rx="18" fill="#0f7a48"/><text x="855" y="145" font-size="28" fill="#fff">Data</text><text x="855" y="178" font-size="18" fill="#dff5e9">JSON</text>
    <line x1="250" y1="150" x2="385" y2="150" stroke="#24466e" stroke-width="8" marker-end="url(#arrow)"/><text x="317" y="128" font-size="18" fill="#24466e">HTTP Request</text>
    <line x1="605" y1="150" x2="740" y2="150" stroke="#24466e" stroke-width="8" marker-end="url(#arrow)"/><text x="672" y="128" font-size="18" fill="#24466e">CRUD Logic</text>
    <line x1="740" y1="230" x2="605" y2="230" stroke="#24466e" stroke-width="8" marker-end="url(#arrow)"/><text x="672" y="260" font-size="18" fill="#24466e">Response</text>
    <line x1="385" y1="230" x2="250" y2="230" stroke="#24466e" stroke-width="8" marker-end="url(#arrow)"/><text x="317" y="260" font-size="18" fill="#24466e">JSON</text>
  </g>
</svg>
